<?xml version="1.0" encoding="utf-8"?>
<!-- Generator: Adobe Illustrator 23.0.2, SVG Export Plug-In . SVG Version: 6.00 Build 0)  -->
<svg version="1.1" id="Capa_1" xmlns="http://www.w3.org/2000/svg" xmlns:xlink="http://www.w3.org/1999/xlink" x="0px" y="0px"
	 viewBox="0 0 373.8 137.7" style="enable-background:new 0 0 373.8 137.7;" xml:space="preserve">
<style type="text/css">
	.st0{fill-rule:evenodd;clip-rule:evenodd;}
</style>
<g>
	<path d="M364.4,3.1C365,3,365.7,3,366.4,3c1.1,0,1.8,0.2,2.3,0.6c0.4,0.3,0.6,0.9,0.6,1.5c0,1-0.6,1.7-1.5,2v0
		c0.6,0.2,1,0.8,1.1,1.6c0.3,1.1,0.4,1.8,0.6,2.1h-1c-0.1-0.2-0.3-0.9-0.5-1.9c-0.2-1.1-0.6-1.5-1.6-1.5h-1v3.4h-1V3.1z M365.5,6.7
		h1c1.1,0,1.8-0.6,1.8-1.5c0-1-0.7-1.5-1.8-1.5c-0.5,0-0.8,0-1,0.1V6.7z"/>
	<path d="M366.7,14.2c-3.9,0-7.1-3.2-7.1-7.1c0-3.9,3.2-7.1,7.1-7.1c3.9,0,7.1,3.2,7.1,7.1C373.8,11,370.6,14.2,366.7,14.2
		 M366.7,1.2c-3.3,0-5.9,2.6-5.9,5.9c0,3.3,2.6,5.9,5.9,5.9c3.3,0,5.9-2.6,5.9-5.9C372.6,3.8,369.9,1.2,366.7,1.2"/>
	<path d="M99.3,45.1l-1,3.1h13l-6.8,49.9c-0.2,1.6-0.4,3-0.8,4.4c-0.3,1.4-0.9,2.4-1.7,3.3c-0.8,0.8-1.9,1.3-3.4,1.3
		c-0.6,0-1.2-0.1-1.8-0.3c-0.7-0.2-1.2-0.5-1.7-0.9c-0.5-0.4-0.7-0.8-0.8-1.2c0-0.5,0.3-0.9,0.8-1.1c0.5-0.3,1.1-0.6,1.8-0.9
		c0.7-0.3,1.3-0.9,1.8-1.6c0.5-0.7,0.8-1.7,0.8-3.1c0-1.1-0.3-2-0.9-2.8c-0.6-0.7-1.5-1.1-2.8-1.1c-1,0-1.9,0.4-2.7,1.1
		c-0.8,0.7-1.4,1.6-1.8,2.7c-0.4,1.1-0.6,2.2-0.7,3.5c0,1.9,0.4,3.4,1.3,4.5c0.8,1.2,1.9,2,3.2,2.5c1.3,0.5,2.6,0.8,4.1,0.8
		c1.5,0,3-0.3,4.6-1.1c1.5-0.7,3-1.9,4.4-3.6c1.4-1.7,2.6-3.9,3.7-6.6c1.1-2.8,1.9-6.2,2.4-10.2l5.3-39.5h10.1l0.9-3.1h-10.5
		c0.3-2.9,0.7-5.3,0.9-7.4c0.3-2.1,0.6-3.9,0.9-5.4c0.3-1.5,0.7-2.8,1.2-3.9c0.5-1.1,1.2-2,2-2.8c0.8-0.8,1.6-1.4,2.4-1.6
		c0.8-0.3,1.6-0.4,2.4-0.4c0.5,0,1,0.1,1.4,0.2c0.5,0.2,0.9,0.3,1.2,0.6c0.3,0.3,0.5,0.6,0.5,0.9c0,0.3-0.2,0.6-0.6,0.9
		c-0.4,0.2-0.8,0.5-1.3,0.8c-0.5,0.3-0.9,0.8-1.3,1.3c-0.4,0.6-0.6,1.4-0.6,2.4c0,0.9,0.2,1.7,0.6,2.3c0.4,0.6,0.9,1.1,1.6,1.5
		c0.6,0.3,1.3,0.5,2,0.5c0.9,0,1.7-0.2,2.5-0.7c0.8-0.5,1.4-1.1,1.8-2c0.5-0.8,0.7-1.9,0.7-3c0-1.4-0.4-2.7-1.1-3.9
		c-0.7-1.2-1.7-2.1-3.1-2.8c-1.3-0.7-2.9-1.1-4.8-1.1c-2.6,0-4.9,0.7-7,2c-2.1,1.3-3.9,3-5.4,5.2c-1.5,2.2-2.8,4.7-3.7,7.5
		c-1,2.8-1.6,5.7-2,8.8H99.3z"/>
	<path d="M138.5,67.2c0.5-2.8,1.1-5.3,2-7.6c0.9-2.2,1.9-4.2,3-5.8c1.1-1.6,2.3-3,3.4-4.1c1.1-1.1,2.2-1.9,3.3-2.5
		c1-0.5,1.9-0.8,2.5-0.8c0.9,0,1.7,0.4,2.2,1.1c0.5,0.7,0.8,1.6,0.8,2.7c0,1.6-0.4,3.5-1,5.6c-0.7,2.1-1.5,4.3-2.5,6.7
		c-1,2.4-2,4.9-3,7.4c-1,2.5-1.8,5.1-2.5,7.6c-0.7,2.5-1,4.9-1,7.3c0,1,0.1,2.1,0.2,3.3c0.2,1.2,0.4,2.4,0.8,3.7
		c0.3,1.2,0.8,2.3,1.4,3.4c0.6,1,1.4,1.8,2.3,2.5c0.9,0.6,2,0.9,3.3,1c1.5,0,2.9-0.5,4.3-1.4c1.4-0.9,2.8-2.2,4.1-3.7
		c1.3-1.6,2.5-3.4,3.5-5.3c1-2,1.9-4,2.6-6.2c0.7-2.1,1.1-4.3,1.4-6.3h-2.2c-0.4,2.6-1,5.1-2,7.5c-0.9,2.4-2.1,4.7-3.3,6.6
		c-1.3,2-2.6,3.5-3.9,4.7c-1.3,1.2-2.5,1.8-3.6,1.8c-0.8,0-1.5-0.2-2-0.5c-0.5-0.4-0.8-0.8-1-1.3c-0.2-0.5-0.3-1.1-0.3-1.7
		c0-1.7,0.4-3.5,1.1-5.6c0.7-2.1,1.6-4.3,2.6-6.7c1-2.4,2.1-4.9,3.1-7.4c1-2.6,1.9-5.1,2.6-7.7c0.7-2.6,1.1-5.1,1.1-7.6
		c0-1.9-0.2-3.6-0.6-5.3c-0.4-1.7-1-3.1-1.7-4.4c-0.7-1.3-1.6-2.3-2.7-3c-1-0.7-2.2-1.1-3.5-1.1c-0.9,0-2,0.3-3.3,0.9
		c-1.3,0.6-2.6,1.5-4,2.7c-1.4,1.2-2.7,2.7-4,4.6c-1.3,1.8-2.5,4-3.5,6.5c-1,2.5-1.7,5.4-2.2,8.5H138.5z M161.3,21.3
		c-1.1,0-2.1,0.3-2.9,0.8c-0.9,0.5-1.6,1.2-2.1,2.1c-0.5,0.9-0.8,1.8-0.8,2.9c0,1.1,0.3,2.1,0.8,2.9c0.5,0.9,1.2,1.6,2.1,2.1
		c0.9,0.5,1.8,0.8,2.9,0.8c1.1,0,2.1-0.3,2.9-0.8c0.9-0.5,1.6-1.2,2.1-2.1c0.5-0.9,0.8-1.8,0.8-2.9c0-1.1-0.3-2.1-0.8-2.9
		c-0.5-0.9-1.2-1.6-2.1-2.1C163.3,21.6,162.3,21.4,161.3,21.3"/>
	<path d="M247.5,45c1.8,0,3.3,0.3,4.7,1c1.3,0.6,2.6,1.5,3.7,2.7c1.3,1.4,2.3,2.9,3,4.7c0.7,1.8,1.3,3.7,1.6,5.8
		c0.3,2.1,0.5,4.1,0.6,6.2c0.1,2.1,0.1,4.1,0.1,6c0,1.3,0,2.7-0.1,4.4c-0.1,1.7-0.2,3.5-0.5,5.4c-0.3,1.9-0.7,3.7-1.3,5.6
		c-0.6,1.8-1.5,3.5-2.5,4.9c-1.1,1.5-2.5,2.7-4.2,3.5c-1.7,0.9-3.8,1.3-6.2,1.4c-1.7,0-3.3-0.3-4.8-0.9c-1.5-0.6-2.8-1.5-4-2.7
		c-1-1-1.8-2.1-2.5-3.4c-0.6-1.3-1.1-2.8-1.5-4.7c-0.4-1.8-0.6-4-0.8-6.6c-0.1-2.6-0.2-5.7-0.2-9.3c0-2.6,0.1-5,0.3-7.4
		c0.2-2.3,0.8-4.6,1.6-6.6c0.9-2.1,2.2-4,4-5.8c1.3-1.4,2.7-2.4,4.1-3.1C244.1,45.3,245.7,45,247.5,45 M225.2,99.1
		c0.1-1.4,0.4-2.8,0.8-4.3c0.4-1.5,0.9-2.9,1.5-4.4c0.6-1.4,1.3-2.6,2.1-3.7c1,2.2,2.3,4.2,4,6c1.7,1.8,3.7,3.2,6,4.3
		c2.3,1.1,4.8,1.6,7.6,1.7c3.4,0,6.7-0.7,9.8-2.1c3.1-1.4,5.9-3.4,8.3-5.9c2.4-2.5,4.3-5.5,5.7-9c1.4-3.4,2.1-7.2,2.1-11.2
		c0-3.2-0.5-6.1-1.4-8.9c-0.9-2.8-2.1-5.4-3.7-7.7c-1.6-2.3-3.4-4.3-5.5-6c-2.1-1.7-4.3-3-6.6-3.9c-2.3-0.9-4.7-1.4-7.2-1.4
		c-2.2,0-4.3,0.4-6.4,1.2c-2.1,0.8-4,2.1-5.7,3.9c-1.7,1.8-3.1,4-4.1,6.8V21.4l-19.5,0.8v3.2c1.7,0,3.3,0.2,4.7,0.6
		c1.5,0.4,2.6,1.2,3.5,2.2c0.9,1.1,1.4,2.5,1.4,4.4v66.5H225.2z"/>
	<path d="M282.4,71.3c0,3,0.5,6,1.4,8.7c0.9,2.8,2.2,5.3,3.9,7.7c1.6,2.3,3.6,4.4,5.8,6.1c2.2,1.7,4.6,3.1,7.1,4
		c2.6,1,5.2,1.4,7.9,1.5c2.8,0,5.5-0.5,8.1-1.4c2.6-0.9,5-2.3,7.3-4c2.2-1.7,4.2-3.7,5.9-6.1c1.7-2.3,3-4.9,3.9-7.7
		c0.9-2.8,1.4-5.7,1.4-8.8c0-3.3-0.5-6.5-1.4-9.4c-0.9-2.9-2.3-5.6-3.9-7.9c-1.7-2.4-3.6-4.4-5.8-6.1c-2.2-1.7-4.6-3-7.1-3.9
		c-2.5-0.9-5.1-1.4-7.8-1.4c-2.4,0-4.9,0.4-7.4,1.3c-2.5,0.9-4.9,2.1-7.2,3.8c-2.3,1.6-4.3,3.6-6.1,6c-1.8,2.3-3.2,5-4.2,8
		C282.9,64.5,282.4,67.8,282.4,71.3 M293.9,74.9c0-3.6,0-6.7,0.1-9.5c0.1-2.7,0.2-5.1,0.5-7.1c0.3-2,0.7-3.8,1.4-5.3
		c0.6-1.5,1.5-2.8,2.7-4c0.7-0.7,1.5-1.4,2.5-2c1-0.6,2.2-1.1,3.4-1.5c1.3-0.4,2.6-0.6,4.1-0.6c1.9,0,3.4,0.2,4.8,0.7
		c1.3,0.4,2.4,0.9,3.3,1.5c0.9,0.6,1.5,1.1,1.9,1.5c1.2,1.2,2.2,2.6,2.9,4c0.7,1.5,1.2,3.2,1.5,5.2c0.3,2,0.5,4.4,0.5,7.2
		c0.1,2.8,0.1,6.1,0.1,9.9c0,2.3-0.1,4.6-0.2,6.7c-0.2,2.2-0.6,4.2-1.2,6.1c-0.6,1.9-1.7,3.5-3,5c-0.7,0.7-1.5,1.3-2.5,1.9
		c-1,0.7-2.1,1.2-3.5,1.6c-1.3,0.4-2.8,0.6-4.5,0.7c-1,0-2.1-0.1-3.3-0.4c-1.2-0.3-2.4-0.7-3.6-1.3c-1.2-0.6-2.4-1.5-3.5-2.5
		c-1.3-1.4-2.3-3-2.9-4.9c-0.6-1.9-1-4-1.2-6.2C293.9,79.2,293.9,77,293.9,74.9"/>
	<path d="M184.7,22.3l-0.7,3h7c1.8,0,3.1,0.3,3.9,1c0.8,0.6,1.2,1.5,1.2,2.5c0,0.3,0,0.6-0.1,0.9c-0.1,0.3-0.1,0.6-0.2,0.9
		l-12.5,45.3c-0.5,1.8-0.9,3.5-1.1,5.2c-0.2,1.6-0.3,3.2-0.3,4.7c0,2.7,0.4,5.1,1,7.1c0.7,2,1.6,3.6,2.8,4.7
		c1.2,1.1,2.5,1.7,4.1,1.7c2.3,0,4.4-1,6.4-2.9c2-1.9,3.8-4.6,5.4-8c1.6-3.5,2.9-7.6,3.9-12.3h-2.2c-1,4.3-2.3,8.1-3.7,11.2
		c-1.5,3.1-3,5.5-4.6,7.2c-1.6,1.7-3,2.5-4.4,2.6c-1,0-1.8-0.3-2.3-0.9c-0.5-0.6-0.7-1.5-0.7-2.6c0-0.7,0.1-1.4,0.2-2.2
		c0.1-0.8,0.3-1.7,0.6-2.7l18.6-67c-0.9,0.1-2,0.2-3.3,0.3c-1.3,0.1-2.6,0.2-4,0.3c-1.4,0.1-2.8,0.2-4.2,0.2
		c-1.4,0.1-2.6,0.1-3.8,0.1c-1.1,0-2.1,0-2.8,0H184.7z"/>
	<path class="st0" d="M22.4,62.6l-0.8,4.3h0.8l0.8-3.5l1.2-3.5l1.6-2.8l1.6-2.7l3.2-3.6l1.2-1.2l2,0.8l-3.2,5.9l-2.4,4.3l-1.6,2.8
		l1.2,0.4l1.6-3.6l2.7-4.7l3.6-5.9l2,0.4l-2.4,5.5l-1.6,4.7l-1.6,4.3l0.8,0.4l0.8-2.4l1.2-4.3l2.3-5.5l2,0.8l-3.1,12.2l0.8,0.4
		l2-9.1h1.6l0.4,5.5v4.7l-0.4,5.5l-0.8,5.5l-0.4,2.4l-1.2,2.4l-0.8,2l-1.6,2l-1.6,1.2L32.7,89l-2.8-0.8L27.6,87l-2-1.2L24,84.7l-2-2
		l-0.8-0.8l0.4-2.8l-0.4-3.5l-0.8-3.9l-0.8-3.5l-2.4-6.3l-0.8-2.3l0.8-0.8l1.6,0.8l1.6,1.2L22.4,62.6z M41.7,57.5L41.7,57.5l1.2-0.4
		l0.4,2l0.8,3.2l0.8,4.3l0.8-0.4l-0.8-5.9l-0.8-4.3l-0.8-2.4l1.2-0.4l0.4-0.4l1.2,2.4l1.6,3.9l2,5.9h0.8L48,57.9l-1.6-5.1l-0.8-2.4
		l2-0.8l0.8,0.8l0.8,1.6l2,4.7L54,63h1.2l-2.7-6.7l-2-3.5l-1.2-2.4l1.6-0.8l1.6,1.2l1.6,2l3.2,5.1l1.2,2.8l0.8,2.8l0.8,2.4l-0.4,2
		h0.8H61l-0.4-1.6l-0.4-1.6V63l1.2-1.2L63,61l2-1.2l1.6,1.2L65,63.8l-2.4,5.9l-1.2,3.5l-0.8,3.2l-0.4,3.2v1.2l0.8,1.2l-1.2,1.2l-2,2
		l-2,1.2l-2.4,1.2l-2.8,0.4l-3.9,0.4L45.7,87l-1.2-1.6l-0.8-2l-0.8-2l-0.8-4.7l-0.4-5.1v-9.1V57.5z M18.9,40.2L18.9,40.2L17.3,41
		l-3.9,1.6l-5.9,3.2L0,50.8v48.4h79.5V49.6l-8.3-4.3l-5.9-3.2l-4.7-1.6L60.3,41l0.8,2.3v2V48h-0.8v-2.3l-0.4-1.6l-0.4-1.2l-1.6,2.4
		h-0.4l-0.4-0.4l1.2-1.6l0.8-2.7l0.8-3.5l0.4-5.1l1.6-2.8l1.2-2.4l0.8-2.7h-0.4h-0.8l-0.8,0.8L61,25.6h-0.4l2-2.8l1.2-2.3l0.4-2.8
		l-0.4-2.4l-0.4-2l-0.8-1.6l-0.8-1.2L61,10.3L60.6,11l0.8,1.2l0.8,1.6l0.4,2h-0.4L60.6,13l-0.8-0.8l-2,0.8l-1.6,0.8L55.1,15
		l-0.4-0.4l-1.2,1.6l-1.2,1.6l-2,2l0.8,0.4l2.4-2l2-2l0.8-1.2l0.4,0.8l-0.8,1.6l-0.8,1.6l0.4,1.6l0.4,1.6l1.2,2.8l0.4,1.2l2,0.4
		l-3.5,3.2L54.3,35l-2,4.7L50,42.9l-2.4,2.4l-2.4,1.2l-2.4,0.8l-2.4-0.4L39,46.1v-1.2l2,0.8l0.8-1.6l1.2-0.8l1.2-0.8v-0.8h-1.6
		l-0.8-0.4L41,40.6h2.4h1.6l1.6-0.8V39L41,39.4v-0.8l1.6-0.4l0.8-0.8l0.4-0.8v-0.4h-3.5v-5.9V28h-2.4l-2-0.4l-1.6-0.8V26l2.4,0.4
		l0.4-4.3l2.4,0.4l2.4-0.4l2.8-0.8l2.8-0.8l2.8-1.6l2-2l1.6-2l0.8-2.4l0.8,1.2l2-1.6l1.2-0.8l0.8-1.6l0.8-1.6l-0.4-1.6l-0.8-2
		l-1.6-2.4l-0.4,0.4l1.2,2.4l0.4,2l0.4,0.8v0.8l-0.4,0.4l-0.4-0.4l-0.4-1.2V6.3l-1.6-2l-2-1.6l-2.8-1.6l-2.8-0.8L44.9,0H41l-3.6,0.4
		l-3.5,0.8l-3.6,1.2l-3.1,2l-2.8,2.4l-2,2.8L22.1,11l-0.8,2v2l-0.4,2l0.4,2.4l0.4,2.4h0.8l0.4,0.4L22.4,15h0.8v2.8l0.4,2.4l0.8,2.4
		h-0.8h-1.2L22.1,24v2l0.8,3.1l1.2,2.4l0.4,1.2h1.2v0.8l-0.4,0.4l-1.6,0.4l0.4,2.3l0.8,2.4l1.2,3.1l-0.4,0.4l-1.2-2.4l-1.2-2.4
		l-1.2-3.1h-1.2L20.1,37l-0.4,1.6v1.6l0.4,1.2l0.8,2l0.8,1.6l-0.4,0.8l-1.6-2.8v0.8l-0.4,0.8l-0.4,0.8h-1.2l0.8-2l0.4-2V40.2z"/>
	<polygon points="0,120.4 8.6,120.4 7.8,122.1 1.9,122.1 1.9,126.3 7,126.3 7,128 1.9,128 1.9,134.1 0,134.1 	"/>
	<path d="M17.6,131.7c-0.4,0.8-0.6,1.1-1,1.5c-0.8,0.8-1.8,1.2-2.9,1.2c-2.5,0-4.2-2-4.2-5c0-2.9,1.7-5,4.2-5c2.3,0,4,1.9,4,4.5
		c0,0.3,0,0.6,0,1h-6.5c0.2,3.2,2.3,3.2,2.6,3.2c1.8,0,2.3-1.5,2.5-2.1L17.6,131.7z M16.1,128.7c-0.2-2.9-2.2-2.9-2.4-2.9
		c-1.5,0-2.4,1-2.5,2.9H16.1z"/>
	<path d="M22,126.6c0.5-0.9,1.1-2.1,2.5-2.1c0.2,0,0.4,0,0.7,0v1.7c-0.4-0.1-0.6-0.1-0.8-0.1c-1.4,0-2.4,1-2.4,2.4v5.6h-1.6v-9.4H22
		V126.6z"/>
	<path d="M28,120.9h1.6v2.1H28V120.9z M28,124.7h1.6v9.4H28V124.7z"/>
	<path d="M33,126.6c0.3-0.8,0.9-2.1,3.9-2.1c3.5,0,3.5,1.8,3.5,2.8l0,4.6c0,1.2,0.1,1.3,0.7,1.3v1.1c-0.5,0.2-0.7,0.2-1,0.2
		c-1.2,0-1.3-1-1.3-1.8c-0.6,0.7-1.5,1.8-3.2,1.8c-1.7,0-2.9-1.3-2.9-3.1c0-0.7,0.3-1.5,0.9-2.1c0.7-0.7,1.6-1,3.1-1.2
		c1.3-0.2,1.5-0.2,2.1-0.8c0-1.1-0.4-1.4-1.8-1.4c-1.4,0-2.2,0.4-2.6,1.5L33,126.6z M38.7,128.5c-0.7,0.5-0.9,0.6-1.9,0.8
		c-1.1,0.2-1.6,0.4-2,0.9c-0.3,0.3-0.5,0.8-0.5,1.2c0,1,0.7,1.7,1.8,1.7c0.6,0,1.3-0.3,1.8-0.8c0.6-0.6,0.8-1.2,0.8-2.4V128.5z"/>
	<rect x="48.5" y="120.4" width="1.9" height="13.7"/>
	<path d="M61.9,134.1h-1.6v-6c0-1.4-0.7-2.2-1.9-2.2c-1.4,0-2.4,1-2.4,2.3v5.9h-1.6v-9.4H56v1.7c0.9-1.3,1.9-1.9,3.1-1.9
		c1.7,0,2.9,1.3,2.9,3.1V134.1z"/>
	<path d="M67.2,121.1v3.6h2v1.3h-2v5.7c0,1,0.2,1.3,0.8,1.3c0.2,0,0.5,0,1-0.2v1.3c-0.7,0.2-1.1,0.2-1.4,0.2c-1.5,0-2-0.5-2-1.7
		v-6.6h-1.7v-1.3h1.7v-2.5L67.2,121.1z"/>
	<path d="M79.6,131.7c-0.4,0.8-0.6,1.1-1,1.5c-0.8,0.8-1.8,1.2-2.9,1.2c-2.5,0-4.2-2-4.2-5c0-2.9,1.7-5,4.2-5c2.3,0,4,1.9,4,4.5
		c0,0.3,0,0.6,0,1h-6.5c0.2,3.2,2.3,3.2,2.6,3.2c1.8,0,2.3-1.5,2.5-2.1L79.6,131.7z M78.1,128.7c-0.2-2.9-2.2-2.9-2.4-2.9
		c-1.5,0-2.4,1-2.5,2.9H78.1z"/>
	<path d="M84,126.6c0.5-0.9,1.1-2.1,2.5-2.1c0.2,0,0.4,0,0.7,0v1.7c-0.4-0.1-0.6-0.1-0.8-0.1c-1.4,0-2.4,1-2.4,2.4v5.6h-1.6v-9.4H84
		V126.6z"/>
	<path d="M97.3,134.1h-1.6v-6c0-1.4-0.7-2.2-1.9-2.2c-1.4,0-2.4,1-2.4,2.3v5.9h-1.6v-9.4h1.6v1.7c0.9-1.3,1.9-1.9,3.1-1.9
		c1.7,0,2.8,1.3,2.8,3.1V134.1z"/>
	<path d="M100.2,126.6c0.3-0.8,0.9-2.1,3.9-2.1c3.5,0,3.5,1.8,3.5,2.8l0,4.6c0,1.2,0.1,1.3,0.7,1.3v1.1c-0.5,0.2-0.7,0.2-1,0.2
		c-1.2,0-1.3-1-1.3-1.8c-0.5,0.7-1.5,1.8-3.2,1.8c-1.7,0-2.9-1.3-2.9-3.1c0-0.7,0.3-1.5,0.9-2.1c0.7-0.7,1.6-1,3.1-1.2
		c1.3-0.2,1.5-0.2,2.1-0.8c0-1.1-0.4-1.4-1.8-1.4c-1.4,0-2.2,0.4-2.6,1.5L100.2,126.6z M105.9,128.5c-0.7,0.5-0.9,0.6-1.9,0.8
		c-1.1,0.2-1.6,0.4-2,0.9c-0.3,0.3-0.5,0.8-0.5,1.2c0,1,0.7,1.7,1.8,1.7c0.6,0,1.3-0.3,1.8-0.8c0.6-0.6,0.8-1.2,0.8-2.4V128.5z"/>
	<path d="M118.3,131.8c-0.1,0.7-1,2.6-3.7,2.6c-2.5,0-4.3-2.1-4.3-5c0-2.8,1.8-4.9,4.4-4.9c2.5,0,3.4,1.9,3.5,2.7l-1.3,0.6
		c-0.4-1.3-1.1-1.9-2.3-1.9c-1.7,0-2.6,1.3-2.6,3.6c0,1.4,0.3,2.3,0.9,2.9c0.5,0.5,1.2,0.8,1.9,0.8c1.2,0,2-0.6,2.4-2L118.3,131.8z"
		/>
	<path d="M121.1,120.9h1.6v2.1h-1.6V120.9z M121.1,124.7h1.6v9.4h-1.6V124.7z"/>
	<path d="M134.3,129.3c0,3.1-1.7,5.1-4.4,5.1c-2.5,0-4.3-2.1-4.3-5c0-2.9,1.8-4.9,4.3-4.9C132.5,124.5,134.3,126.5,134.3,129.3
		 M127.2,129.5c0,2.3,1,3.6,2.8,3.6c1.6,0,2.6-1.4,2.6-3.6c0-2.6-1.2-3.6-2.8-3.6C128.2,125.8,127.2,127.1,127.2,129.5"/>
	<path d="M144.3,134.1h-1.6v-6c0-1.4-0.7-2.2-1.9-2.2c-1.4,0-2.4,1-2.4,2.3v5.9h-1.6v-9.4h1.6v1.7c0.9-1.3,1.9-1.9,3.1-1.9
		c1.7,0,2.9,1.3,2.9,3.1V134.1z"/>
	<path d="M147.3,126.6c0.3-0.8,0.9-2.1,3.9-2.1c3.5,0,3.5,1.8,3.5,2.8l0,4.6c0,1.2,0.1,1.3,0.7,1.3v1.1c-0.5,0.2-0.7,0.2-1,0.2
		c-1.2,0-1.3-1-1.3-1.8c-0.6,0.7-1.5,1.8-3.2,1.8c-1.7,0-2.9-1.3-2.9-3.1c0-0.7,0.3-1.5,0.9-2.1c0.7-0.7,1.6-1,3.1-1.2
		c1.3-0.2,1.5-0.2,2.1-0.8c0-1.1-0.4-1.4-1.8-1.4c-1.4,0-2.2,0.4-2.6,1.5L147.3,126.6z M153,128.5c-0.7,0.5-0.9,0.6-1.9,0.8
		c-1.1,0.2-1.6,0.4-2,0.9c-0.3,0.3-0.5,0.8-0.5,1.2c0,1,0.7,1.7,1.8,1.7c0.6,0,1.3-0.3,1.8-0.8c0.6-0.6,0.8-1.2,0.8-2.4V128.5z"/>
	<rect x="158.3" y="120.4" width="1.6" height="13.7"/>
	<path d="M174,120.4h1.6v13.7H174v-2.2c-0.6,1-1.1,2.5-3,2.5c-2.2,0-3.5-1.9-3.5-5c0-2.9,1.4-4.9,3.5-4.9c1.8,0,2.5,1.3,3,2.4V120.4
		z M169.2,129.7c0,2.1,0.8,3.4,2.3,3.4c0.6,0,1.3-0.3,1.7-0.7c0.6-0.6,0.9-1.5,0.9-2.9c0-3.6-2.4-3.6-2.6-3.6
		C169.9,125.9,169.2,127.2,169.2,129.7"/>
	<path d="M186.4,131.7c-0.4,0.8-0.6,1.1-1,1.5c-0.8,0.8-1.8,1.2-2.9,1.2c-2.5,0-4.2-2-4.2-5c0-2.9,1.7-5,4.2-5c2.3,0,4,1.9,4,4.5
		c0,0.3,0,0.6,0,1h-6.5c0.2,3.2,2.3,3.2,2.6,3.2c1.8,0,2.3-1.5,2.5-2.1L186.4,131.7z M184.9,128.7c-0.2-2.9-2.2-2.9-2.4-2.9
		c-1.5,0-2.4,1-2.5,2.9H184.9z"/>
	<rect x="189.6" y="120.4" width="1.6" height="13.7"/>
	<polygon points="199.4,120.4 201.3,120.4 201.3,132.5 207.9,132.5 207.9,134.1 199.4,134.1 	"/>
	<path d="M210.6,120.9h1.6v2.1h-1.6V120.9z M210.6,124.7h1.6v9.4h-1.6V124.7z"/>
	<path d="M215.7,120.4h1.6v6.6c0.4-1,1.1-2.5,3-2.5c2.1,0,3.5,1.9,3.5,4.9c0,2.9-1.4,4.9-3.4,4.9c-2,0-2.7-1.5-3.1-2.4v2.1h-1.6
		V120.4z M217.3,129.4c0,1.4,0.3,2.3,0.9,2.9c0.5,0.4,1.1,0.7,1.7,0.7c1.4,0,2.2-1.3,2.2-3.4c0-2-0.3-2.9-1.1-3.5
		c-0.3-0.2-0.7-0.3-1.1-0.3C218.3,125.9,217.3,127.2,217.3,129.4"/>
	<path d="M227.9,126.6c0.5-0.9,1.1-2.1,2.5-2.1c0.2,0,0.4,0,0.7,0v1.7c-0.4-0.1-0.6-0.1-0.8-0.1c-1.4,0-2.4,1-2.4,2.4v5.6h-1.6v-9.4
		h1.6V126.6z"/>
	<path d="M241.4,129.3c0,3.1-1.7,5.1-4.4,5.1c-2.5,0-4.3-2.1-4.3-5c0-2.9,1.8-4.9,4.3-4.9C239.6,124.5,241.4,126.5,241.4,129.3
		 M234.3,129.5c0,2.3,1,3.6,2.8,3.6c1.6,0,2.6-1.4,2.6-3.6c0-2.6-1.2-3.6-2.8-3.6C235.3,125.8,234.3,127.1,234.3,129.5"/>
	<path d="M255,120.4h1.6v13.7H255v-2.2c-0.6,1-1.1,2.5-3,2.5c-2.2,0-3.5-1.9-3.5-5c0-2.9,1.4-4.9,3.5-4.9c1.8,0,2.5,1.3,3,2.4V120.4
		z M250.2,129.7c0,2.1,0.8,3.4,2.3,3.4c0.6,0,1.3-0.3,1.7-0.7c0.6-0.6,0.9-1.5,0.9-2.9c0-3.6-2.4-3.6-2.6-3.6
		C250.9,125.9,250.2,127.2,250.2,129.7"/>
	<path d="M267.4,131.7c-0.4,0.8-0.6,1.1-1,1.5c-0.8,0.8-1.8,1.2-2.9,1.2c-2.5,0-4.2-2-4.2-5c0-2.9,1.7-5,4.2-5c2.3,0,4,1.9,4,4.5
		c0,0.3,0,0.6,0,1H261c0.1,3.2,2.3,3.2,2.6,3.2c1.8,0,2.3-1.5,2.5-2.1L267.4,131.7z M265.9,128.7c-0.2-2.9-2.2-2.9-2.4-2.9
		c-1.5,0-2.4,1-2.5,2.9H265.9z"/>
	<path d="M274.9,120.4h5.5c2.5,0,4.3,1.3,4.3,3.2c0,2.2-2.1,2.9-2.8,3.2c1.3,0.3,2,0.7,2.6,1.4c0.5,0.6,0.7,1.3,0.7,2.1
		c0,2.3-1.7,3.9-4.2,3.9h-6V120.4z M276.8,122v4h3c1.9,0,2.9-0.7,2.9-2.1c0-1.3-0.9-1.9-2.6-1.9H276.8z M276.8,127.6v4.9h3.2
		c2,0,3.2-0.9,3.2-2.4c0-1.7-1.1-2.6-3.1-2.6H276.8z"/>
	<path d="M296.3,129.3c0,3.1-1.7,5.1-4.4,5.1c-2.5,0-4.3-2.1-4.3-5c0-2.9,1.8-4.9,4.3-4.9C294.5,124.5,296.3,126.5,296.3,129.3
		 M289.2,129.5c0,2.3,1,3.6,2.8,3.6c1.6,0,2.6-1.4,2.6-3.6c0-2.6-1.2-3.6-2.8-3.6C290.2,125.8,289.2,127.1,289.2,129.5"/>
	<path d="M304.9,132.2c-0.7,1.4-1.6,2.2-3,2.2c-2.1,0-3.5-2-3.5-4.9c0-3,1.4-5,3.6-5c1.9,0,2.5,1.4,3,2.4v-2.2h1.6v9.1
		c0,2.5-1.5,3.9-4.1,3.9c-2.1,0-3.6-1-3.6-2.4c0-0.2,0-0.4,0.2-0.6l1.5,0.6c0,0.8,0.9,1.1,2,1.1c1.6,0,2.5-0.7,2.5-2V132.2z
		 M300.1,129.2c0,1.7,0.2,2.6,0.9,3.2c0.4,0.4,0.9,0.6,1.5,0.6c1.5,0,2.5-1.3,2.5-3.3c0-2.4-1-3.9-2.6-3.9
		C300.9,125.8,300.1,127,300.1,129.2"/>
	<path d="M317.7,129.3c0,3.1-1.7,5.1-4.4,5.1c-2.5,0-4.3-2.1-4.3-5c0-2.9,1.8-4.9,4.3-4.9C315.9,124.5,317.7,126.5,317.7,129.3
		 M310.6,129.5c0,2.3,1,3.6,2.8,3.6c1.6,0,2.6-1.4,2.6-3.6c0-2.6-1.2-3.6-2.8-3.6C311.6,125.8,310.6,127.1,310.6,129.5"/>
	<path d="M322.4,121.1v3.6h2v1.3h-2v5.7c0,1,0.2,1.3,0.8,1.3c0.2,0,0.5,0,1-0.2v1.3c-0.7,0.2-1.1,0.2-1.4,0.2c-1.5,0-2-0.5-2-1.7
		v-6.6h-1.7v-1.3h1.7v-2.5L322.4,121.1z"/>
	<path d="M326.9,126.6c0.3-0.8,0.9-2.1,3.9-2.1c3.5,0,3.5,1.8,3.5,2.8l0,4.6c0,1.2,0.1,1.3,0.7,1.3v1.1c-0.5,0.2-0.7,0.2-1,0.2
		c-1.2,0-1.3-1-1.3-1.8c-0.5,0.7-1.5,1.8-3.2,1.8c-1.7,0-2.9-1.3-2.9-3.1c0-0.7,0.3-1.5,0.9-2.1c0.7-0.7,1.6-1,3.1-1.2
		c1.3-0.2,1.5-0.2,2.1-0.8c0-1.1-0.4-1.4-1.8-1.4c-1.4,0-2.2,0.4-2.6,1.5L326.9,126.6z M332.6,128.5c-0.7,0.5-0.9,0.6-1.9,0.8
		c-1.1,0.2-1.6,0.4-2,0.9c-0.3,0.3-0.5,0.8-0.5,1.2c0,1,0.7,1.7,1.8,1.7c0.6,0,1.3-0.3,1.8-0.8c0.6-0.6,0.8-1.2,0.8-2.4V128.5z
		 M329.8,123.7l1.2-2.6h2.2l-2,2.6H329.8z"/>
	<g>
		<path d="M332.4,32.4c1.3,0.3,2.3,0.8,3,1.6c0.9,0.9,1.4,2.1,1.4,3.5c0,1.6-0.6,2.8-1.7,3.8c-1.3,1.1-2.9,1.6-4.9,1.6
			c-1.2,0-2.3-0.2-3.2-0.6s-1.5-0.9-2-1.6s-0.7-1.5-0.7-2.3c0-0.7,0.2-1.2,0.5-1.6c0.3-0.4,0.8-0.6,1.3-0.6c0.5,0,0.8,0.2,1.1,0.5
			c0.3,0.3,0.4,0.7,0.4,1.3c0,0.3-0.1,0.6-0.2,0.9s-0.4,0.4-0.8,0.6c-0.4,0.2-0.6,0.4-0.6,0.6c0,0.3,0.1,0.6,0.4,0.9
			s0.7,0.6,1.2,0.8s1.2,0.3,2.1,0.3c1.4,0,2.5-0.4,3.2-1.1c0.7-0.7,1-1.8,1-3.4c0-1.6-0.3-2.8-0.9-3.5c-0.6-0.7-1.5-1-2.6-1
			c-0.3,0-0.7,0-1.2,0.1c-0.4,0.1-0.6,0.1-0.8,0.1c-0.3,0-0.5-0.1-0.6-0.2c-0.2-0.1-0.2-0.3-0.2-0.4c0-0.2,0.1-0.3,0.2-0.4
			c0.1-0.1,0.4-0.2,0.7-0.2l0.8,0l0.7,0c1.2,0,2-0.3,2.6-0.9s0.9-1.5,0.9-2.7c0-1.5-0.3-2.6-0.8-3.2c-0.6-0.6-1.4-1-2.5-1
			c-1,0-1.8,0.2-2.4,0.5s-0.9,0.7-0.9,1c0,0.2,0.2,0.5,0.5,0.8c0.5,0.5,0.7,0.9,0.7,1.4c0,0.4-0.1,0.7-0.4,0.9
			c-0.3,0.3-0.6,0.4-1.1,0.4c-0.5,0-0.8-0.2-1.1-0.5c-0.3-0.3-0.4-0.8-0.4-1.4c0-1,0.3-1.8,1-2.6c1-1.1,2.4-1.6,4.2-1.6
			c1.7,0,3.1,0.5,4.1,1.4c1,0.9,1.5,2.1,1.5,3.4c0,1-0.3,1.8-0.8,2.5S333.7,31.9,332.4,32.4z"/>
		<path d="M342.6,33.6c0.7-0.9,1.5-1.6,2.2-2s1.6-0.6,2.6-0.6c1.5,0,2.8,0.5,3.8,1.5s1.5,2.3,1.5,3.9c0,1.9-0.6,3.5-1.8,4.7
			c-1.2,1.2-2.7,1.9-4.5,1.9c-1.3,0-2.4-0.3-3.4-1s-1.8-1.7-2.4-3.1s-0.9-3.1-0.9-5c0-2.1,0.4-3.9,1.1-5.6s1.7-2.9,2.9-3.8
			s2.4-1.3,3.7-1.3c1.3,0,2.5,0.4,3.4,1.1c0.8,0.6,1.2,1.3,1.2,2.1c0,0.6-0.2,1-0.5,1.4s-0.8,0.5-1.3,0.5c-0.5,0-0.8-0.2-1.2-0.5
			s-0.5-0.7-0.5-1.1c0-0.3,0.1-0.6,0.3-0.9c0.2-0.3,0.3-0.6,0.3-0.8c0-0.3-0.1-0.5-0.4-0.6c-0.3-0.2-0.8-0.3-1.4-0.3
			c-0.9,0-1.7,0.3-2.4,0.8c-0.7,0.6-1.3,1.5-1.9,2.9s-0.8,2.9-0.8,4.6C342.5,32.7,342.5,33.1,342.6,33.6z M346.6,32.2
			c-1.1,0-2.1,0.4-2.8,1.2c-0.7,0.8-1.1,2-1.1,3.5c0,1.6,0.4,2.9,1.1,3.7c0.7,0.9,1.6,1.3,2.7,1.3c1.1,0,1.9-0.4,2.6-1.2
			c0.7-0.8,1-2,1-3.6c0-1.7-0.3-3-0.9-3.7S347.7,32.2,346.6,32.2z"/>
	</g>
</g>
</svg>
